<svg id="Layer_1" data-name="Layer 1" xmlns="http://www.w3.org/2000/svg" viewBox="0 0 53 88"><path d="M72.5,6h-45a4,4,0,0,0-4,4V90a4,4,0,0,0,4,4h45a4,4,0,0,0,4-4V10A4,4,0,0,0,72.5,6Zm1,84a1,1,0,0,1-1,1h-45a1,1,0,0,1-1-1V10a1,1,0,0,1,1-1h45a1,1,0,0,1,1,1Z" transform="translate(-23.5 -6)"/><path d="M28.5,76.5h43V16h-43Zm3-57.5h37V73.5h-37Z" transform="translate(-23.5 -6)"/><path d="M42.5,14h15a1.5,1.5,0,0,0,0-3h-15a1.5,1.5,0,0,0,0,3Z" transform="translate(-23.5 -6)"/><path d="M50,81a4,4,0,1,0,4,4A4,4,0,0,0,50,81Zm0,5a1,1,0,1,1,1-1A1,1,0,0,1,50,86Z" transform="translate(-23.5 -6)"/><path d="M43.56,36.06a1.5,1.5,0,0,0-2.12-2.12l-3.23,3.23a4,4,0,0,0,0,5.66l3.23,3.23a1.5,1.5,0,0,0,2.12,0,1.49,1.49,0,0,0,0-2.12l-3.23-3.23a1,1,0,0,1,0-1.42Z" transform="translate(-23.5 -6)"/><path d="M58.56,33.94a1.5,1.5,0,0,0-2.12,2.12l3.23,3.23a1,1,0,0,1,0,1.42l-3.23,3.23a1.49,1.49,0,0,0,0,2.12,1.51,1.51,0,0,0,1.06.44,1.49,1.49,0,0,0,1.06-.44l3.24-3.23A4,4,0,0,0,63,40a4,4,0,0,0-1.17-2.83Z" transform="translate(-23.5 -6)"/><path d="M53,31.08a1.48,1.48,0,0,0-1.89,1l-5,15a1.49,1.49,0,0,0,1,1.89,1.26,1.26,0,0,0,.47.08,1.5,1.5,0,0,0,1.42-1l5-15A1.48,1.48,0,0,0,53,31.08Z" transform="translate(-23.5 -6)"/></svg>