<svg id="Layer_1" data-name="Layer 1" xmlns="http://www.w3.org/2000/svg" viewBox="0 0 60 60"><path d="M45,17v2H59V17H57V15.89a7,7,0,1,0-10,0V17Zm3.67-2.28a5,5,0,1,1,7.06-.4c-.13.14-.26.27-.4.4a1,1,0,0,0-.33.74V17H53V14.41l2.71-2.7-1.42-1.42L52,12.59l-2.29-2.3-1.42,1.42L51,14.41V17H49V15.46A1,1,0,0,0,48.67,14.72Z" transform="translate(-2 -2)"/><rect x="8" y="8" width="2" height="2"/><rect x="44" y="23" width="2" height="2"/><path d="M11,6a5,5,0,1,0,5,5A5,5,0,0,0,11,6Zm0,8a3,3,0,1,1,3-3A3,3,0,0,1,11,14Z" transform="translate(-2 -2)"/><path d="M61,37H40V3a1,1,0,0,0-1-1H3A1,1,0,0,0,2,3V57a1,1,0,0,0,1,1H7v1a3,3,0,0,0,6,0V58h9v3a1,1,0,0,0,1,1H61a1,1,0,0,0,1-1V38A1,1,0,0,0,61,37Zm-1.1,2A5,5,0,0,1,55,43H29a5,5,0,0,1-4.9-4ZM9,34h2V50H9Zm.12-2L10,30.24,10.88,32ZM9,52h2v2H9Zm1,8a1,1,0,0,1-1-1V56h2v3A1,1,0,0,1,10,60Zm3-4V32a1.14,1.14,0,0,0-.1-.45l-2-4a1.05,1.05,0,0,0-1.43-.36,1,1,0,0,0-.36.36l-2,4A1,1,0,0,0,7,32V56H4V4H38V37H23a1,1,0,0,0-1,1V56Zm47,4H24V42.89A7,7,0,0,0,29,45H55a7,7,0,0,0,5-2.11Z" transform="translate(-2 -2)"/><path d="M61,21H43a1,1,0,0,0-1,1V34a1,1,0,0,0,1,1H61a1,1,0,0,0,1-1V22A1,1,0,0,0,61,21ZM60,33H44V23H60Z" transform="translate(-2 -2)"/><rect x="49" y="27" width="5" height="2"/><rect x="17" y="6" width="17" height="2"/><rect x="17" y="10" width="13" height="2"/><rect x="24" y="50" width="2" height="2"/><rect x="29" y="50" width="13" height="2"/><rect x="29" y="54" width="9" height="2"/><rect x="49" y="23" width="7" height="2"/></svg>